# xmcd
#
# Track frame offsets: 
#        150
#        10743
#        25276
#        43489
#        61390
#        72013
#        93460
#        99213
#        115120
#        129876
#        142561
#        158210
#        170885
#
# Disc length: 2449 seconds
#
# Revision: 0
# Processed by: cddbd v1.5.2PL0 Copyright (c) Steve Scherf et al.
# Submitted via: ExactAudioCopy v0.99pb3
#
DISCID=a3098f0d
DTITLE=Camphor - Drawn To Dust
DYEAR=2008
DGENRE=Folk
TTITLE0=Daybreak
TTITLE1=Deconstructed
TTITLE2=The Sweetest Tooth
TTITLE3=Button Up
TTITLE4=Tired Light
TTITLE5=Immolation
TTITLE6=Beauty In Ruins
TTITLE7=Castaway
TTITLE8=Bones
TTITLE9=So Lucky...
TTITLE10=Confidences Shattered
TTITLE11=Mistakes
TTITLE12=Sundown
EXTD=
EXTT0=
EXTT1=
EXTT2=
EXTT3=
EXTT4=
EXTT5=
EXTT6=
EXTT7=
EXTT8=
EXTT9=
EXTT10=
EXTT11=
EXTT12=
PLAYORDER=
